<svg width="123" height="106" viewBox="0 0 123 106" fill="none" xmlns="http://www.w3.org/2000/svg">
<path d="M11.1672 68.3733C3.96724 67.9733 2.66775 73.3733 5.16724 77.3733L58.1672 101.373C61.3672 102.973 64.5006 101.707 65.6672 100.873L117.667 76.8733C121.668 72.8733 117.667 66.3733 112.167 68.3733L61.1672 90.3733L11.1672 68.3733Z" fill="#00B4D8"/>
<path d="M10.6681 24.3252C-1.33194 28.7252 5.66806 34.4918 10.6681 36.8252C25.0011 42.6582 54.4672 54.8242 57.6672 56.8242C60.8672 58.8242 64.3339 57.6576 65.6672 56.8242C79.1672 51.4909 107.967 39.6242 115.167 34.8242C122.367 30.0242 117.501 26.4909 114.167 25.3242C100.167 19.3245 71.0672 6.72516 66.6672 4.32516C62.2672 1.92516 57.8339 3.32516 56.1672 4.32516C46.0008 9.1585 22.6681 19.9252 10.6681 24.3252Z" fill="#00B4D8"/>
<path d="M11.1672 46.8242C3.96724 46.4242 2.66775 51.8242 5.16724 55.8242L58.1672 79.8242C61.3672 81.4242 64.5006 80.1576 65.6672 79.3242L117.667 55.3242C121.668 51.3242 117.667 44.8242 112.167 46.8242L61.1672 68.8242L11.1672 46.8242Z" fill="#00B4D8"/>
</svg>
